# xmcd CD database file
#
# Track frame offsets:
#	150
#	11361
#	24682
#	37748
#	51480
#	62551
#	75285
#	88914
#	101208
#	115417
#	168311
#	179024
#	204111
#	218088
#	240638
#	256279
#	281790
#	301058
#
# Disc length: 4423 seconds
#
# Revision: 0
# Processed by: cddbd v1.5.2PL0 Copyright (c) Steve Scherf et al.
# Submitted via: CDex 1.51
#
DISCID=ef114512
DTITLE=Shorty Rogers - West Coast Jazz - Modern Sounds
DYEAR=2005
DGENRE=Jazz
TTITLE0=A Mile Down the High Way
TTITLE1=Do It Again
TTITLE2=He Can Come Back Anytime He Wants To
TTITLE3=Popo
TTITLE4=Didi
TTITLE5=Four Mothers
TTITLE6=Over the Rainbow
TTITLE7=Apropos
TTITLE8=Sam and the Lady
TTITLE9=Popo
TTITLE10=What's New?
TTITLE11=Lullaby in Rhythm
TTITLE12=All the Things You Are
TTITLE13=Robbins Nest
TTITLE14=Body and Soul
TTITLE15=Jive at Five
TTITLE16=Tin Tin Deo
TTITLE17=Cherokee
EXTD=YEAR: 2005
EXTT0=
EXTT1=
EXTT2=
EXTT3=
EXTT4=
EXTT5=
EXTT6=
EXTT7=
EXTT8=
EXTT9=
EXTT10=
EXTT11=
EXTT12=
EXTT13=
EXTT14=
EXTT15=
EXTT16=
EXTT17=
PLAYORDER=
